<svg width="40" height="40" viewBox="0 0 40 40" fill="none" xmlns="http://www.w3.org/2000/svg">
<path d="M31.1285 32.6783L21.6035 23.1517C17.3662 26.1642 11.5275 25.4273 8.17158 21.4565C4.81565 17.4858 5.06206 11.606 8.73846 7.93004C12.4139 4.25245 18.2943 4.00497 22.2658 7.36074C26.2372 10.7165 26.9745 16.5558 23.9618 20.7933L33.4868 30.32L31.1302 32.6767L31.1285 32.6783ZM15.8085 8.33335C12.648 8.33264 9.92128 10.5512 9.27925 13.6458C8.63723 16.7403 10.2563 19.8605 13.1563 21.1172C16.0562 22.3737 19.44 21.4215 21.2588 18.8368C23.0778 16.2522 22.8318 12.7456 20.6702 10.44L21.6785 11.44L20.5418 10.3067L20.5218 10.2867C19.2748 9.032 17.5775 8.32859 15.8085 8.33335Z" fill="#47651D" fill-opacity="0.8"/>
</svg>
